<svg width="187" height="26" fill="none" xmlns="http://www.w3.org/2000/svg"><path d="M41.436 18.122h9.408l-4.552-11h-.304l-4.552 11zM49.63 4.595l8.65 20.81h-4.37l-2.003-5.054H40.374l-2.004 5.054H34l8.65-20.81h6.98zm22.787 18.73V12.026h-3.794c-.688 0-1.326.109-1.912.327a3.665 3.665 0 0 0-1.487.981c-.405.456-.729 1.04-.972 1.754-.222.714-.333 1.576-.333 2.587 0 1.01.11 1.873.333 2.586.243.714.567 1.298.972 1.754.424.456.92.793 1.487 1.011a5.94 5.94 0 0 0 1.912.297h3.794zm-3.794 2.08c-1.396 0-2.671-.178-3.824-.535-1.133-.357-2.105-.872-2.914-1.546a6.991 6.991 0 0 1-1.882-2.438c-.425-.95-.637-2.021-.637-3.21 0-1.19.212-2.26.637-3.211a6.99 6.99 0 0 1 1.882-2.438c.81-.674 1.78-1.19 2.914-1.546 1.153-.357 2.428-.535 3.824-.535h3.794V4.595h4.249v20.81h-8.043zm23.205-20.81c1.517 0 2.873.168 4.066.505 1.215.317 2.236.793 3.066 1.427a6.196 6.196 0 0 1 1.912 2.29c.445.891.668 1.912.668 3.061 0 1.15-.223 2.18-.668 3.092a6.528 6.528 0 0 1-1.912 2.29c-.83.614-1.851 1.09-3.066 1.426-1.193.318-2.549.476-4.066.476h-6.526v6.243h-4.4V4.595h10.926zm-6.526 2.23v10.107h6.526c1.598 0 2.832-.406 3.702-1.218.89-.833 1.336-2.111 1.336-3.836 0-1.724-.445-2.992-1.336-3.805-.87-.832-2.104-1.249-3.702-1.249h-6.526zm30.973 5.202h-3.642c-1.376 0-2.428.367-3.157 1.1-.728.713-1.092 1.784-1.092 3.21v9.068h-4.249v-9.067c0-2.022.647-3.588 1.942-4.698 1.315-1.13 3.197-1.694 5.645-1.694h4.553v2.081zm9.995 12.04c.648 0 1.255-.118 1.821-.356a3.964 3.964 0 0 0 1.487-1.1c.425-.515.759-1.18 1.002-1.992.263-.813.394-1.794.394-2.943 0-1.15-.131-2.131-.394-2.944-.243-.812-.577-1.466-1.002-1.962a3.845 3.845 0 0 0-1.487-1.13 4.653 4.653 0 0 0-1.821-.356 4.66 4.66 0 0 0-1.821.356 3.852 3.852 0 0 0-1.487 1.13c-.425.496-.769 1.15-1.032 1.962-.243.813-.364 1.794-.364 2.944s.121 2.13.364 2.943c.263.813.607 1.477 1.032 1.992.425.495.921.862 1.487 1.1a4.66 4.66 0 0 0 1.821.357zm0-14.716c1.356 0 2.6.189 3.733.565 1.154.357 2.135.892 2.944 1.606.81.693 1.437 1.565 1.882 2.616.465 1.03.698 2.21.698 3.538 0 1.347-.233 2.537-.698 3.567a7.28 7.28 0 0 1-1.882 2.617c-.809.693-1.79 1.218-2.944 1.575-1.133.377-2.377.565-3.733.565-1.376 0-2.63-.188-3.763-.565-1.133-.357-2.105-.882-2.914-1.575a7.616 7.616 0 0 1-1.912-2.617c-.445-1.03-.668-2.22-.668-3.567 0-1.328.223-2.507.668-3.538.465-1.05 1.103-1.923 1.912-2.616.809-.714 1.781-1.249 2.914-1.606 1.133-.376 2.387-.565 3.763-.565zm13.526.892c0-1.942.617-3.468 1.851-4.578C142.882 4.555 144.642 4 146.928 4c.769 0 1.538.1 2.307.297.789.199 1.487.446 2.094.744l-.91 1.932a7.453 7.453 0 0 0-1.427-.595 5.289 5.289 0 0 0-1.76-.297c-.425 0-.83.08-1.214.238a2.833 2.833 0 0 0-1.032.743c-.283.317-.516.743-.698 1.279-.162.535-.243 1.169-.243 1.902v.297h4.704v2.082h-4.704v12.783h-4.249V12.622h-2.883V10.54h2.883v-.297zM160.28 23.92c.991 0 1.912-.169 2.762-.506.87-.336 1.72-.812 2.549-1.427l1.214 1.784a7.04 7.04 0 0 1-1.365.922 9.777 9.777 0 0 1-1.67.713c-.586.179-1.204.317-1.851.417-.648.119-1.295.178-1.942.178-1.437 0-2.752-.188-3.946-.565-1.173-.357-2.175-.882-3.005-1.575a7.443 7.443 0 0 1-1.942-2.617c-.445-1.03-.668-2.22-.668-3.567 0-1.328.213-2.507.638-3.538.445-1.05 1.052-1.923 1.821-2.616a7.752 7.752 0 0 1 2.792-1.606c1.072-.376 2.256-.565 3.551-.565 1.214 0 2.357.179 3.429.535 1.073.357 2.003.883 2.793 1.576a7.41 7.41 0 0 1 1.881 2.468c.466.97.698 2.07.698 3.3v2.08H155.06c.243 1.646.819 2.825 1.73 3.539.931.713 2.094 1.07 3.49 1.07zm-1.062-12.635c-.587 0-1.133.109-1.639.327a3.492 3.492 0 0 0-1.336 1.04c-.364.476-.667 1.09-.91 1.844-.223.753-.344 1.665-.364 2.735h8.498c0-1.03-.122-1.923-.364-2.676-.243-.753-.567-1.367-.972-1.843-.384-.496-.839-.852-1.365-1.07a3.604 3.604 0 0 0-1.548-.357zm21.105 6.303L187 25.404h-4.856l-4.249-4.965-4.249 4.965h-4.856l6.677-7.819-6.525-7.64h4.856l4.097 4.816 4.097-4.816h4.856l-6.525 7.64z" fill="#191919"/><rect y="4" width="10" height="10" rx="3" fill="#484AD7"/><rect y="16" width="10" height="10" rx="3" fill="#484AD7"/><rect x="12" y="16" width="10" height="10" rx="3" fill="#484AD7"/><circle cx="19" cy="7" r="7" fill="#191919"/></svg>