<svg width="185" height="64" viewBox="0 0 185 64" fill="none" xmlns="http://www.w3.org/2000/svg">
<path d="M57.5419 18.2589L81.0176 0L92.7555 9.78156L104.493 0L126.665 18.2589H117.535L105.145 7.82525L97.9723 13.0421L103.189 18.2589H94.0597L92.7555 16.9547L91.4513 18.2589H81.0176L87.5387 13.0421L81.0176 7.82525L67.3234 18.2589H57.5419Z" fill="url(#paint0_linear_10865_242)"/>
<path d="M35.5961 41.4217H26.4667L24.6669 45.6473H21.1716L29.3881 27.3884H32.7269L40.9695 45.6473H37.422L35.5961 41.4217ZM34.4745 38.7611L31.0314 30.7793L27.6144 38.7611H34.4745Z" fill="white"/>
<path d="M77.8187 30.2577H71.7671V27.3884H87.2611V30.2577H81.2096V45.6473H77.8187V30.2577Z" fill="white"/>
<path d="M136.616 42.8041V45.6473H122.922V27.3884H136.251V30.2316H126.313V34.9789H135.129V37.7699H126.313V42.8041H136.616Z" fill="white"/>
<path d="M177.134 45.9082C175.726 45.9082 174.36 45.7082 173.039 45.3082C171.735 44.9083 170.7 44.3779 169.935 43.7171L171.109 41.0826C171.856 41.6738 172.769 42.1607 173.848 42.5433C174.943 42.9085 176.039 43.0911 177.134 43.0911C178.49 43.0911 179.499 42.8737 180.16 42.439C180.838 42.0042 181.177 41.4304 181.177 40.7174C181.177 40.1957 180.986 39.7697 180.603 39.4393C180.238 39.0915 179.769 38.822 179.195 38.6307C178.621 38.4394 177.838 38.222 176.847 37.9786C175.456 37.6482 174.326 37.3178 173.456 36.9874C172.604 36.657 171.865 36.144 171.239 35.4484C170.63 34.7354 170.326 33.779 170.326 32.5792C170.326 31.5706 170.596 30.6576 171.135 29.8403C171.691 29.0056 172.517 28.3448 173.613 27.8579C174.726 27.371 176.082 27.1276 177.682 27.1276C178.795 27.1276 179.89 27.2667 180.968 27.5449C182.047 27.8231 182.977 28.2231 183.759 28.7448L182.69 31.3793C181.89 30.9098 181.055 30.5533 180.186 30.3098C179.316 30.0664 178.473 29.9447 177.656 29.9447C176.317 29.9447 175.317 30.1707 174.656 30.6228C174.013 31.075 173.691 31.6749 173.691 32.4226C173.691 32.9443 173.874 33.3704 174.239 33.7008C174.621 34.0312 175.1 34.292 175.673 34.4833C176.247 34.6746 177.03 34.892 178.021 35.1354C179.377 35.4484 180.49 35.7788 181.36 36.1266C182.229 36.457 182.968 36.97 183.577 37.6656C184.203 38.3611 184.516 39.3002 184.516 40.4827C184.516 41.4912 184.238 42.4042 183.681 43.2215C183.142 44.0388 182.316 44.6909 181.203 45.1778C180.09 45.6647 178.734 45.9082 177.134 45.9082Z" fill="white"/>
<path fill-rule="evenodd" clip-rule="evenodd" d="M11.6335 28.1709C10.4684 27.6492 9.09468 27.3884 7.51224 27.3884H0V45.6473H3.39094V40.3783V37.5091V30.2577H7.35574C8.83384 30.2577 9.95546 30.5707 10.7206 31.1967C11.4857 31.8227 11.8683 32.7183 11.8683 33.8834C11.8683 35.0485 11.4857 35.944 10.7206 36.57C9.95546 37.1961 8.83384 37.5091 7.35574 37.5091H5.934V40.3783H7.51224C9.09468 40.3783 10.4684 40.1175 11.6335 39.5958C12.816 39.0741 13.7203 38.3264 14.3463 37.3526C14.9723 36.3614 15.2853 35.205 15.2853 33.8834C15.2853 32.5444 14.9723 31.388 14.3463 30.4142C13.7203 29.4404 12.816 28.6926 11.6335 28.1709Z" fill="white"/>
<path fill-rule="evenodd" clip-rule="evenodd" d="M57.5074 40.3001L61.2375 45.6473H64.8893L60.6897 39.648C61.9417 39.1611 62.8982 38.422 63.559 37.4308C64.2372 36.4396 64.5762 35.2571 64.5762 33.8834C64.5762 32.5444 64.2632 31.388 63.6372 30.4142C63.0112 29.4404 62.1069 28.6926 60.9245 28.1709C59.7594 27.6492 58.3856 27.3884 56.8032 27.3884H49.2909V45.6473H52.6819V40.3262V37.5351V30.2577H56.6467C58.1248 30.2577 59.2464 30.5707 60.0115 31.1967C60.7767 31.8227 61.1592 32.7183 61.1592 33.8834C61.1592 35.0485 60.7767 35.9527 60.0115 36.5961C59.2464 37.2221 58.1248 37.5351 56.6467 37.5351H54.6643V40.3262H56.8032C57.1162 40.3262 57.3509 40.3175 57.5074 40.3001Z" fill="white"/>
<path fill-rule="evenodd" clip-rule="evenodd" d="M112.03 27.3884V45.6473H109.239L101.386 36.004V30.8136L108.665 39.7523V27.3884H112.03ZM99.1702 45.6473V33.2834V27.3883L98.5963 27.3884H95.8053V45.6473H99.1702Z" fill="white"/>
<path fill-rule="evenodd" clip-rule="evenodd" d="M154.612 40.3001L158.342 45.6473H161.994L157.794 39.648C159.046 39.1611 160.003 38.422 160.663 37.4308C161.342 36.4396 161.681 35.2571 161.681 33.8834C161.681 32.5444 161.368 31.388 160.742 30.4142C160.116 29.4404 159.211 28.6926 158.029 28.1709C156.864 27.6492 155.49 27.3884 153.908 27.3884H146.395V45.6473H149.786V40.3262V37.5351V30.2577H153.751C155.229 30.2577 156.351 30.5707 157.116 31.1967C157.881 31.8227 158.264 32.7183 158.264 33.8834C158.264 35.0485 157.881 35.9527 157.116 36.5961C156.351 37.2221 155.229 37.5351 153.751 37.5351H152.097V40.3262H153.908C154.221 40.3262 154.455 40.3175 154.612 40.3001Z" fill="white"/>
<path d="M58.0157 55.6896V63.9061H56.8419V60.2439H52.1233V63.9061H50.9495V55.6896H52.1233V59.2227H56.8419V55.6896H58.0157Z" fill="white"/>
<path d="M75.3352 64C74.5057 64 73.7584 63.82 73.0932 63.4601C72.4281 63.0923 71.9038 62.5876 71.5204 61.9459C71.1448 61.3042 70.9569 60.5882 70.9569 59.7979C70.9569 59.0075 71.1448 58.2915 71.5204 57.6498C71.9038 57.0082 72.4281 56.5073 73.0932 56.1474C73.7584 55.7796 74.5057 55.5957 75.3352 55.5957C76.1568 55.5957 76.9002 55.7796 77.5654 56.1474C78.2305 56.5073 78.7509 57.0082 79.1265 57.6498C79.5021 58.2837 79.6899 58.9997 79.6899 59.7979C79.6899 60.596 79.5021 61.316 79.1265 61.9576C78.7509 62.5915 78.2305 63.0923 77.5654 63.4601C76.9002 63.82 76.1568 64 75.3352 64ZM75.3352 62.9554C75.9377 62.9554 76.4777 62.8184 76.955 62.5445C77.4402 62.2706 77.8197 61.895 78.0936 61.4177C78.3753 60.9325 78.5161 60.3926 78.5161 59.7979C78.5161 59.2031 78.3753 58.6671 78.0936 58.1898C77.8197 57.7046 77.4402 57.3251 76.955 57.0512C76.4777 56.7773 75.9377 56.6404 75.3352 56.6404C74.7326 56.6404 74.1849 56.7773 73.6919 57.0512C73.2067 57.3251 72.8233 57.7046 72.5416 58.1898C72.2677 58.6671 72.1307 59.2031 72.1307 59.7979C72.1307 60.3926 72.2677 60.9325 72.5416 61.4177C72.8233 61.895 73.2067 62.2706 73.6919 62.5445C74.1849 62.8184 74.7326 62.9554 75.3352 62.9554Z" fill="white"/>
<path d="M96.039 64C94.9434 64 94.0905 63.687 93.4801 63.061C92.8697 62.435 92.5645 61.5351 92.5645 60.3613V55.6896H93.7383V60.3143C93.7383 62.075 94.5091 62.9554 96.0507 62.9554C96.8019 62.9554 97.3771 62.7402 97.7762 62.3098C98.1752 61.8716 98.3748 61.2064 98.3748 60.3143V55.6896H99.5134V60.3613C99.5134 61.5429 99.2082 62.4467 98.5978 63.0727C97.9874 63.6909 97.1345 64 96.039 64Z" fill="white"/>
<path d="M115.465 64C114.847 64 114.248 63.9061 113.669 63.7183C113.098 63.5227 112.648 63.2723 112.32 62.9671L112.754 62.0515C113.067 62.3332 113.466 62.5641 113.951 62.7441C114.444 62.9162 114.949 63.0023 115.465 63.0023C116.146 63.0023 116.655 62.8888 116.991 62.6619C117.328 62.4271 117.496 62.118 117.496 61.7346C117.496 61.4529 117.402 61.226 117.214 61.0538C117.034 60.8738 116.807 60.7369 116.533 60.643C116.267 60.5491 115.888 60.4434 115.395 60.3261C114.777 60.1774 114.276 60.0287 113.892 59.88C113.517 59.7313 113.192 59.5044 112.918 59.1992C112.652 58.8862 112.519 58.4676 112.519 57.9433C112.519 57.5051 112.633 57.1099 112.86 56.7578C113.094 56.4056 113.446 56.1239 113.916 55.9126C114.385 55.7013 114.968 55.5957 115.665 55.5957C116.15 55.5957 116.627 55.6583 117.097 55.7835C117.566 55.9087 117.969 56.0887 118.306 56.3235L117.919 57.2625C117.574 57.0434 117.206 56.879 116.815 56.7695C116.424 56.6521 116.04 56.5934 115.665 56.5934C115 56.5934 114.499 56.7147 114.162 56.9573C113.834 57.1999 113.669 57.5129 113.669 57.8963C113.669 58.178 113.763 58.4089 113.951 58.5889C114.139 58.761 114.37 58.898 114.644 58.9997C114.925 59.0936 115.305 59.1953 115.782 59.3049C116.4 59.4536 116.897 59.6022 117.273 59.7509C117.649 59.8996 117.969 60.1265 118.235 60.4317C118.509 60.7369 118.646 61.1477 118.646 61.6642C118.646 62.0946 118.529 62.4897 118.294 62.8497C118.059 63.2018 117.703 63.4836 117.226 63.6948C116.749 63.8983 116.162 64 115.465 64Z" fill="white"/>
<path d="M137.475 62.8849V63.9061H131.512V55.6896H137.311V56.7108H132.686V59.2344H136.806V60.2322H132.686V62.8849H137.475Z" fill="white"/>
<g opacity="0.85">
<rect x="0.156738" y="59.9938" width="36.5178" height="1.30421" fill="white"/>
<circle cx="37.3266" cy="60.6458" r="1.95631" fill="white"/>
</g>
<g opacity="0.85">
<rect width="36.5178" height="1.30421" transform="matrix(-1 0 0 1 184.049 59.9939)" fill="white"/>
<circle r="1.95631" transform="matrix(-1 0 0 1 146.879 60.646)" fill="white"/>
</g>
<defs>
<linearGradient id="paint0_linear_10865_242" x1="119.492" y1="12.39" x2="59.4982" y2="18.911" gradientUnits="userSpaceOnUse">
<stop stop-color="#E82F83"/>
<stop offset="1" stop-color="#782B89"/>
</linearGradient>
</defs>
</svg>
