<svg xmlns="http://www.w3.org/2000/svg" width="73" height="32" viewBox="0 0 73 32" fill="none">
    <path d="M30.1183 32C26.2911 32 23.459 30.7864 22.0211 28.4951C18.5753 22.9837 24.5112 13.2731 35.5369 6.38825C40.6793 3.17912 46.1286 1.10907 50.8809 0.565815C55.9071 -0.0102949 59.6248 1.18793 61.3433 3.93924C64.7891 9.44843 58.8532 19.1591 47.8274 26.0439C42.685 29.2552 37.2357 31.3231 32.4835 31.8663C31.6983 31.9567 30.9086 32.0013 30.1183 32ZM53.2176 2.54387C52.5187 2.54495 51.8204 2.58664 51.1264 2.66873C46.6832 3.17693 41.5474 5.13527 36.6592 8.1823C26.9794 14.2282 21.0961 23.01 23.8185 27.3604C25.0614 29.3472 28.1302 30.2191 32.238 29.7481C36.6811 29.2377 41.817 27.2794 46.7051 24.2323C56.385 18.1887 62.2683 9.40681 59.5458 5.05641C58.5244 3.42227 56.2688 2.54387 53.2176 2.54387Z" fill="#FFB525"/>
    <path d="M57.9873 15.1899L62.3274 10.9096L59.4493 10.9468L55.0259 15.3476V6.99731H52.8887V21.4526H55.0259V18.1471L56.5033 16.686L59.6992 21.4526H62.3406L57.9873 15.1899Z" fill="white"/>
    <path d="M69.9901 10.9401V11.9762C69.7064 11.7088 69.3888 11.4798 69.0454 11.295C68.3466 10.9411 67.5707 10.7665 66.7876 10.7868C65.8627 10.7629 64.9503 11.0036 64.1577 11.4806C63.3651 11.9575 62.7253 12.6509 62.3138 13.4789C61.8998 14.325 61.6846 15.2545 61.6846 16.1963C61.6846 17.1381 61.8998 18.0675 62.3138 18.9137C62.7208 19.7459 63.3593 20.4434 64.1528 20.9224C64.9462 21.4014 65.861 21.6417 66.7876 21.6146C67.3738 21.6394 67.959 21.5469 68.509 21.3427C69.0589 21.1384 69.5625 20.8265 69.9901 20.4251V21.4547H72.1273V10.9401H69.9901ZM70.0691 16.1974C70.0737 16.7923 69.9496 17.3811 69.7052 17.9235C69.4769 18.4478 69.0944 18.8904 68.6086 19.1924C68.1227 19.4944 67.5565 19.6417 66.9849 19.6146C66.3872 19.6302 65.7981 19.4703 65.2905 19.1546C64.8171 18.852 64.4375 18.4234 64.1945 17.917C63.9433 17.3769 63.8131 16.7886 63.8131 16.193C63.8131 15.5975 63.9433 15.0091 64.1945 14.4691C64.4389 13.9659 64.8184 13.5405 65.2905 13.2402C65.7981 12.9245 66.3872 12.7645 66.9849 12.7802C67.5554 12.7527 68.1208 12.8988 68.6065 13.1991C69.0922 13.4995 69.4753 13.94 69.7052 14.4625C69.952 15.0072 70.0762 15.5995 70.0691 16.1974Z" fill="#FFB525"/>
    <path d="M9.81363 13.4748C9.40468 12.664 8.77965 11.9818 8.00743 11.5034C7.16474 11.0073 6.19903 10.759 5.2214 10.7871C4.24552 10.7652 3.28316 11.018 2.44414 11.5165C1.66677 11.992 1.03749 12.6748 0.626979 13.488C0.214406 14.3345 0 15.2637 0 16.2053C0 17.1469 0.214406 18.0762 0.626979 18.9227C1.03749 19.7359 1.66677 20.4186 2.44414 20.8942C3.28338 21.3919 4.24574 21.6439 5.2214 21.6214C6.20031 21.6455 7.1661 21.3927 8.00743 20.892C8.78075 20.4149 9.40611 19.7323 9.81363 18.9205C10.2262 18.074 10.4406 17.1447 10.4406 16.2031C10.4406 15.2616 10.2262 14.3323 9.81363 13.4858V13.4748ZM5.21044 19.6083C4.61977 19.6255 4.03741 19.4661 3.53795 19.1505C3.08346 18.846 2.7235 18.4203 2.49894 17.9216C2.25893 17.3766 2.13498 16.7877 2.13498 16.1922C2.13498 15.5967 2.25893 15.0078 2.49894 14.4628C2.69652 14.0831 2.97007 13.748 3.30262 13.4783C3.63517 13.2086 4.01963 13.0101 4.43215 12.8951C4.84466 12.78 5.27642 12.751 5.70065 12.8096C6.12488 12.8683 6.53252 13.0134 6.89828 13.2361C7.35098 13.5416 7.71052 13.9661 7.93728 14.4628C8.1773 15.0078 8.30124 15.5967 8.30124 16.1922C8.30124 16.7877 8.1773 17.3766 7.93728 17.9216C7.7102 18.4465 7.3284 18.8898 6.84278 19.1923C6.35716 19.4949 5.7908 19.6423 5.21921 19.6149L5.21044 19.6083Z" fill="white"/>
    <path d="M20.4863 12.8659C20.1115 12.2082 19.5614 11.6675 18.8971 11.304C18.2584 10.9611 17.5441 10.7834 16.8191 10.787C16.0648 10.7596 15.3186 10.9489 14.6687 11.3325C14.3846 11.5137 14.1182 11.7213 13.873 11.9524V10.9404H11.7358V21.4549H13.873V15.4485C13.8625 14.9578 13.9869 14.4737 14.2325 14.0487C14.4595 13.657 14.7882 13.3338 15.1838 13.1134C15.5953 12.888 16.0583 12.7733 16.5275 12.7804C16.854 12.7671 17.1794 12.8239 17.482 12.9471C17.7845 13.0703 18.057 13.257 18.2811 13.4945C18.754 14.0245 18.9983 14.7197 18.9607 15.4288V21.4549H21.0979V15.3872C21.1221 14.5073 20.911 13.6369 20.4863 12.8659Z" fill="white"/>
    <path d="M30.2233 17.9083C30.0315 18.406 29.6967 18.8358 29.261 19.1438C28.7947 19.4687 28.2356 19.634 27.6674 19.6148C27.0791 19.634 26.4977 19.4838 25.9924 19.182C25.4872 18.8803 25.0794 18.4396 24.8178 17.9127C24.5568 17.377 24.4211 16.789 24.4211 16.1931C24.4211 15.5973 24.5568 15.0093 24.8178 14.4736C25.082 13.9493 25.4905 13.5114 25.9954 13.2114C26.5002 12.9114 27.0803 12.7618 27.6674 12.7803C28.2356 12.7611 28.7947 12.9263 29.261 13.2513C29.696 13.559 30.0307 13.9879 30.2233 14.4845L30.3044 14.7036H32.5687L32.4416 14.2808C32.1408 13.2676 31.5126 12.3825 30.6551 11.7639C29.7274 11.102 28.6097 10.7591 27.4701 10.7869C26.5355 10.7572 25.6117 10.9945 24.8073 11.471C24.0028 11.9475 23.351 12.6433 22.9283 13.4769C22.5088 14.3218 22.2905 15.2522 22.2905 16.1953C22.2905 17.1385 22.5088 18.0689 22.9283 18.9138C23.3384 19.7231 23.9622 20.4049 24.7323 20.8853C25.557 21.3836 26.5067 21.6366 27.4701 21.6147C28.6091 21.6453 29.727 21.3047 30.6551 20.6443C31.5129 20.0269 32.1412 19.1424 32.4416 18.1296L32.5687 17.7068H30.3044L30.2233 17.9083Z" fill="white"/>
    <path d="M35.9888 6.99731H33.8516V21.4526H35.9888V6.99731Z" fill="white"/>
    <path d="M40.092 7.35181H37.8364V9.94102H40.092V7.35181Z" fill="white"/>
    <path d="M40.0327 10.9399H37.8955V21.4545H40.0327V10.9399Z" fill="white"/>
    <path d="M49.4778 17.9081C49.2868 18.4056 48.9528 18.8355 48.5177 19.1435C48.051 19.4676 47.4922 19.6328 46.9241 19.6145C46.3358 19.6338 45.7544 19.4836 45.2491 19.1818C44.7439 18.88 44.3361 18.4394 44.0745 17.9125C43.8121 17.3772 43.6756 16.789 43.6756 16.1929C43.6756 15.5968 43.8121 15.0086 44.0745 14.4733C44.3374 13.948 44.7457 13.5092 45.2508 13.2091C45.756 12.9089 46.3367 12.76 46.9241 12.7801C47.4923 12.7608 48.0514 12.9261 48.5177 13.251C48.9527 13.5582 49.2868 13.9874 49.4778 14.4843L49.5611 14.7033H51.8188L51.6895 14.2806C51.3887 13.2674 50.7605 12.3823 49.903 11.7636C48.9784 11.1023 47.8636 10.7594 46.7268 10.7867C45.7627 10.765 44.8124 11.0181 43.9868 11.5161C43.2193 11.9989 42.5967 12.6801 42.185 13.4876C41.764 14.332 41.5449 15.2626 41.5449 16.206C41.5449 17.1495 41.764 18.0801 42.185 18.9245C42.5949 19.7333 43.2179 20.4149 43.9868 20.896C44.8124 21.394 45.7627 21.647 46.7268 21.6254C47.8663 21.6529 48.9837 21.3083 49.9096 20.6441C50.7674 20.0267 51.3957 19.1422 51.6961 18.1293L51.8254 17.7066H49.5611L49.4778 17.9081Z" fill="white"/>
</svg>